<svg width="120" height="120" viewBox="0 0 120 120" fill="none" xmlns="http://www.w3.org/2000/svg">
<path d="M60 60C76.5703 60 90 46.5703 90 30C90 13.4297 76.5703 0 60 0C43.4297 0 30 13.4297 30 30C30 46.5703 43.4297 60 60 60ZM81 67.5H77.0859C71.8828 69.8906 66.0938 71.25 60 71.25C53.9062 71.25 48.1406 69.8906 42.9141 67.5H39C21.6094 67.5 7.5 81.6094 7.5 99V108.75C7.5 114.961 12.5391 120 18.75 120H101.25C107.461 120 112.5 114.961 112.5 108.75V99C112.5 81.6094 98.3906 67.5 81 67.5Z" fill="#334155"/>
</svg>
