<svg width="200" height="200" viewBox="0 0 200 200" fill="none" xmlns="http://www.w3.org/2000/svg">
<circle cx="100" cy="100" r="99" fill="#94A3B8" stroke-width="2"/>
<path d="M100 100C116.57 100 130 86.5703 130 70C130 53.4297 116.57 40 100 40C83.4297 40 70 53.4297 70 70C70 86.5703 83.4297 100 100 100ZM121 107.5H117.086C111.883 109.891 106.094 111.25 100 111.25C93.9062 111.25 88.1406 109.891 82.9141 107.5H79C61.6094 107.5 47.5 121.609 47.5 139V148.75C47.5 154.961 52.5391 160 58.75 160H141.25C147.461 160 152.5 154.961 152.5 148.75V139C152.5 121.609 138.391 107.5 121 107.5Z" fill="#334155"/>
</svg>
